/* XPM */
static char *bitcoin321735054419[] = {
/* columns rows colors chars-per-pixel */
"32 32 176 2 ",
"   c #2EAD9B",
".  c #2FAE9B",
"X  c #32AF9D",
"o  c #34B19E",
"O  c #3AB3A1",
"+  c #46B8A7",
"@  c #47B9A7",
"#  c #48B8A6",
"$  c #48B8A7",
"%  c #49B8A7",
"&  c #48B8A8",
"*  c #4AB9A8",
"=  c #4BB9A8",
"-  c #4AB8A9",
";  c #4BB8A9",
":  c #4CBAA9",
">  c #4DB9AA",
",  c #4DBAAA",
"<  c #4EBAAA",
"1  c #50BBAB",
"2  c #51BBAB",
"3  c #51BBAC",
"4  c #52BBAC",
"5  c #52BCAC",
"6  c #53BCAC",
"7  c #52BCAD",
"8  c #53BCAD",
"9  c #55BDAD",
"0  c #55BDAE",
"q  c #56BDAE",
"w  c #57BDAF",
"e  c #58BDAF",
"r  c #5ABFAF",
"t  c #59BEB0",
"y  c #59BFB0",
"u  c #5ABFB0",
"i  c #5BBFB0",
"p  c #5ABFB1",
"a  c #5BBFB1",
"s  c #5BC0B0",
"d  c #5BC0B1",
"f  c #5CC0B1",
"g  c #5EC0B2",
"h  c #5FC1B2",
"j  c #5FC1B3",
"k  c #60C1B2",
"l  c #60C1B3",
"z  c #61C1B3",
"x  c #62C1B3",
"c  c #60C2B3",
"v  c #62C2B4",
"b  c #63C2B4",
"n  c #64C2B4",
"m  c #64C3B4",
"M  c #65C3B5",
"N  c #66C3B5",
"B  c #66C3B6",
"V  c #66C4B5",
"C  c #66C4B6",
"Z  c #67C4B6",
"A  c #68C4B7",
"S  c #68C5B7",
"D  c #69C5B7",
"F  c #69C5B8",
"G  c #6AC5B8",
"H  c #6BC5B8",
"J  c #6BC6B8",
"K  c #6CC5B8",
"L  c #6CC6B8",
"P  c #6CC6B9",
"I  c #6DC6B9",
"U  c #6DC7B9",
"Y  c #6EC7B9",
"T  c #6EC6BA",
"R  c #6EC7BA",
"E  c #6FC7BA",
"W  c #6FC7BB",
"Q  c #70C7BA",
"!  c #70C7BB",
"~  c #70C8BB",
"^  c #71C8BB",
"/  c #71C9BB",
"(  c #72C8BB",
")  c #73C8BB",
"_  c #72C8BC",
"`  c #73C8BC",
"'  c #72C9BC",
"]  c #73C9BC",
"[  c #74C9BC",
"{  c #75C9BC",
"}  c #75C9BD",
"|  c #75CABD",
" . c #76C9BE",
".. c #7BCCC0",
"X. c #7ECDC1",
"o. c #7FCDC2",
"O. c #80CDC2",
"+. c #81CDC3",
"@. c #80CEC2",
"#. c #82CEC3",
"$. c #86D0C5",
"%. c #87D0C5",
"&. c #87D0C6",
"*. c #88D1C6",
"=. c #8BD1C7",
"-. c #8AD2C7",
";. c #8ED3C9",
":. c #93D5CB",
">. c #94D5CC",
",. c #96D6CC",
"<. c #96D6CD",
"1. c #96D7CD",
"2. c #97D7CD",
"3. c #98D7CE",
"4. c #9AD7CF",
"5. c #99D8CE",
"6. c #A0DAD2",
"7. c #A4DBD3",
"8. c #A4DCD4",
"9. c #A5DCD4",
"0. c #A6DDD4",
"q. c #AADED6",
"w. c #AFE0D8",
"e. c #AFE0D9",
"r. c #B2E1DA",
"t. c #B3E1DA",
"y. c #B7E2DC",
"u. c #B7E3DC",
"i. c #B9E4DD",
"p. c #BCE4DF",
"a. c #BDE5DF",
"s. c #BFE5E0",
"d. c #BFE6E0",
"f. c #C0E6E0",
"g. c #C0E7E1",
"h. c #C2E8E2",
"j. c #C5E8E3",
"k. c #C6E8E3",
"l. c #C7E9E4",
"z. c #C7E9E5",
"x. c #C9EAE5",
"c. c #CAEBE6",
"v. c #CCEBE7",
"b. c #CDEBE7",
"n. c #CEEBE7",
"m. c #D1EDE9",
"M. c #D5EFEB",
"N. c #D8F0EC",
"B. c #DAF1ED",
"V. c #DCF1EE",
"C. c #DEF2EF",
"Z. c #E0F2F1",
"A. c #E1F3F1",
"S. c #E3F4F2",
"D. c #E5F5F2",
"F. c #E4F5F3",
"G. c #E7F6F4",
"H. c #E9F6F5",
"J. c #ECF8F6",
"K. c #EDF8F6",
"L. c #EFF9F7",
"P. c #F1F9F8",
"I. c #F1FAF8",
"U. c #F3FAF9",
"Y. c #F4FAFA",
"T. c #F7FCFC",
"R. c #F8FCFC",
"E. c #F9FDFC",
"W. c #FBFEFD",
"Q. c #FBFEFE",
"!. c #FCFEFD",
"~. c #FCFEFE",
"^. c #FEFFFE",
"/. c #FEFFFF",
"(. c white",
"). c None",
/* pixels */
").).).).).).).).).).).).).E E E E E ).).).).).).).).).).).).).).",
").).).).).).).).).E E E E E E E E E E E E ).).).).).).).).).).).",
").).).).).).).).E E E E E E E E E E E E E E E ).).).).).).).).).",
").).).).).).).E E E E E E E E E E E E E E E E E E ).).).).).).).",
").).).).).E E E E E E E E E E E E E R R ^ E E E E E ).).).).).).",
").).).).E E E E E E E E E E E E E ^ R C R R E E E E E ).).).).).",
").).).E E E E E E E ' Q E E E _ E 4 9 B R _ E E E E E E ).).).).",
").).).E E E E E E } v v } E Q B ^ a.M.J.@.g E E E E E E E ).).).",
").).E E E E E E ' v _ _ 9 } _ v Q /././.;.9 ^ E E E E E E ).).).",
").E E E E E E Q J : C./.' : Q E g C././.q.6 ^ E E E E E E E ).).",
").E E E E E E E u k./././.3.+ C u c././.s.4 Q Q E E E E E E ).).",
"E E E E E E E J z k././././.f.4 O a././.n.9 E E E E E E E E E ).",
"E E E E E E E ^ E - :././././.D.# X././.D.B D E E E E E E E E ).",
"E E E E E E E E Q Q = E H./././.S.9./././._ z Q E E E E E E E ).",
"E E E E E E E E E Q } 9 9 c./././././././.@.g Q Q Q Q Q E E E E ",
"E E E E E E E E E E E } A o 3././././././.5.# z B v z J ' E E E ",
"E E E E E E E E E Q Q Q 6 g h././././././.,.u } } ^ Q Q Q Q E E ",
"E E E E E E E E E ^ E % @.U./././.U.E./.J.$.I././.T./.7.9 Q E ).",
"E E E E E E E E ' z % 0././././.i.@././.J.} w.6.r././.%.u ' E ).",
").E E E E E Q Q C B c././././.q.X 3././.Z.z # X c./.7.: _ E E ).",
").E E E E E E D z B./././.U.=.- : s././.c.q % t./.m.: D Q E ).).",
").E E E E E E Q s ,././.S.B : _ e n././.p.  =./.I.4 : E _ E ).).",
").).E E E E E E ^ # i.B.: s } D B H././.:.a /./.=.6 X.^ E E ).).",
").).).E E E E E ^ E B e B } E g } /././.Z :./././././.t.2 ).).).",
").).).E E E E E E ^ J E Q E E E W $.8.s.J X.s.y.f.s.v.,.).).).).",
").).).).E E E E E E E E E E E Q E u 6 4 ' J : 4 4 4 : v ).).).).",
").).).).).E E E E E E E E E E E E ' W W E E _ W Q _ E ).).).).).",
").).).).).).E E E E E E E E E E E E E E E E E E E E ).).).).).).",
").).).).).).).E E E E E E E E E E E E E E E E E E ).).).).).).).",
").).).).).).).).).E E E E E E E E E E E E E E ).).).).).).).).).",
").).).).).).).).).).).E E E E E E E E E E ).).).).).).).).).).).",
").).).).).).).).).).).).).).E E E ).).).).).).).).).).).).).).)."
};
