/* XPM */
static char *bitcoin161735054418[] = {
/* columns rows colors chars-per-pixel */
"16 16 89 1 ",
"  c #38B1A0",
". c #3AB3A1",
"X c #3BB3A1",
"o c #3CB3A1",
"O c #43B6A5",
"+ c #4DBAAA",
"@ c #4EBAAA",
"# c #4FBAAB",
"$ c #51BCAC",
"% c #52BCAC",
"& c #53BCAC",
"* c #54BCAD",
"= c #54BCAE",
"- c #54BDAE",
"; c #57BEAE",
": c #57BEAF",
"> c #59BEAF",
", c #58BFAF",
"< c #5ABFB0",
"1 c #5DC0B1",
"2 c #5FC0B2",
"3 c #60C0B3",
"4 c #60C1B3",
"5 c #62C2B4",
"6 c #66C3B5",
"7 c #66C4B6",
"8 c #68C4B7",
"9 c #69C5B7",
"0 c #6AC5B8",
"q c #6BC5B8",
"w c #6BC6B8",
"e c #6CC5B8",
"r c #6DC6B9",
"t c #6DC7B9",
"y c #6EC6B9",
"u c #6FC7BA",
"i c #70C7BA",
"p c #70C7BB",
"a c #70C8BB",
"s c #71C8BB",
"d c #72C8BB",
"f c #72C9BB",
"g c #72C8BC",
"h c #73C8BC",
"j c #73C9BD",
"k c #74C9BC",
"l c #74C9BD",
"z c #75C9BD",
"x c #78CBBE",
"c c #7DCDC1",
"v c #7FCDC2",
"b c #83CEC3",
"n c #83CFC3",
"m c #84CFC3",
"M c #87D0C5",
"N c #89D1C6",
"B c #89D1C7",
"V c #8BD2C7",
"C c #8ED3C9",
"Z c #8FD3C9",
"A c #96D6CD",
"S c #98D6CE",
"D c #9BD7CF",
"F c #9FD9D1",
"G c #A5DBD3",
"H c #A3DCD3",
"J c #A7DDD4",
"K c #A7DDD5",
"L c #AADED6",
"P c #AEDFD8",
"I c #B4E1DB",
"U c #B7E3DC",
"Y c #B7E3DD",
"T c #BFE6E0",
"R c #BFE6E1",
"E c #C0E6E1",
"W c #C3E7E2",
"Q c #CAEBE5",
"! c #CDECE7",
"~ c #D3EEEA",
"^ c #E3F4F2",
"/ c #E6F6F3",
"( c #EAF7F5",
") c #F3FAF9",
"_ c #FAFDFD",
"` c #FDFEFE",
"' c #FEFFFF",
"] c white",
"[ c None",
/* pixels */
"[[[[[uuuuu[[[[[[",
"[[[[uuuuppuu[[[[",
"[[uuuupp3$usu[[[",
"[[usu;8uMHs9uu[[",
"[uuwsKw W'b,suu[",
"uup,N'(+u'A;suu[",
"uuuu3C'_A'I&spuu",
"uuuss$;/''W.;1lu",
"uuuhw+s)''QFUJ3p",
"uuuw6L'/b'P8'T&[",
"[up<C'~ox'zNY.h[",
"[uuuwC<OW'N'!D6[",
"[[usu<wpxmlAGA[[",
"[[[uusuh6,9,;[[[",
"[[[[uuuuppps[[[[",
"[[[[[[uuup[[[[[["
};
