/* XPM */
static char *bitcoin641735054419[] = {
/* columns rows colors chars-per-pixel */
"64 64 45 1 ",
"  c #2BAD99",
". c #31AF9C",
"X c #44B7A6",
"o c #47B8A6",
"O c #48B8A7",
"+ c #4BB9A9",
"@ c #53BCAD",
"# c #58BEAF",
"$ c #5BBFB0",
"% c #5EC0B2",
"& c #63C2B4",
"* c #69C5B7",
"= c #6FC7BA",
"- c #70C7BA",
"; c #73C9BC",
": c #7ACBBF",
"> c #7CCCC0",
", c #81CEC3",
"< c #86D0C5",
"1 c #89D1C6",
"2 c #8ED3C9",
"3 c #94D5CC",
"4 c #9ED9D0",
"5 c #A4DCD4",
"6 c #AADED6",
"7 c #ADDFD8",
"8 c #AFE0D9",
"9 c #B2E1DA",
"0 c #BBE5DE",
"q c #BEE5E0",
"w c #C2E7E2",
"e c #C3E8E3",
"r c #CBEBE6",
"t c #CEECE8",
"y c #D4EEEA",
"u c #D8EFEC",
"i c #D7F0EC",
"p c #DCF1EE",
"a c #DFF2F0",
"s c #E3F4F1",
"d c #EAF6F5",
"f c #EEF8F7",
"g c #F3FAF9",
"h c #FFFFFF",
"j c None",
/* pixels */
"jjjjjjjjjjjjjjjjjjjjjjjjjjjjj====jjjjjjjjjjjjjjjjjjjjjjjjjjjjjjj",
"jjjjjjjjjjjjjjjjjjjjjjjj=============jjjjjjjjjjjjjjjjjjjjjjjjjjj",
"jjjjjjjjjjjjjjjjjjjj===-=================jjjjjjjjjjjjjjjjjjjjjjj",
"jjjjjjjjjjjjjjjjjj==========================jjjjjjjjjjjjjjjjjjjj",
"jjjjjjjjjjjjjjjj=================-=====-======jjjjjjjjjjjjjjjjjj",
"jjjjjjjjjjjjjjj==============================-==jjjjjjjjjjjjjjjj",
"jjjjjjjjjjjjjj===========-=====;========-=======-jjjjjjjjjjjjjjj",
"jjjjjjjjjjjj=====-=================================jjjjjjjjjjjjj",
"jjjjjjjjjjj======-=====-============================jjjjjjjjjjjj",
"jjjjjjjjjj===-==============================-========jjjjjjjjjjj",
"jjjjjjjjj=======================-================-====jjjjjjjjjj",
"jjjjjjjj============================================-==jjjjjjjjj",
"jjjjjjj===========================-;--=**;==============jjjjjjjj",
"jjjjjj==-======-================-=%#@@#*==--=============jjjjjjj",
"jjjjjj==========-=====-==========;;260rd2#--==-=====-====jjjjjjj",
"jjjjj==========================;$<hhhhhh5@--=====-========jjjjjj",
"jjjj==-====-=======-;%%=-=======%:hhhhhhq@-================jjjjj",
"jjj================;+86o*;======**fhhhhhr@=================jjjjj",
"jjj=============-=;@:hh8+%;=-====#yhhhhha&*-========-===-===jjjj",
"jj===============;%%fhhhy&@;;===-@ehhhhhg-&-=-=====-========jjjj",
"jj=======-====-=-*+yhhhhhg,O=;==-@9hhhhhh>$-=================jjj",
"jj===============$0hhhhhhhh5+&;--@3hhhhhh3@--================jjj",
"j=====-=========*&fhhhhhhhhhr#@;;$,hhhhhh6@;=========-=======jjj",
"j================*$qhhhhhhhhhs;+;&;hhhhhhq@-======-=====-==-==jj",
"j==-=============-&+3hhhhhhhhhh3O%*dhhhhht#==-=====-==========jj",
"j=================-=+:dhhhhhhhhh0@Xyhhhhhs&*==============-===jj",
"j=========-===-====-;@%thhhhhhhhhpo5hhhhhh;&-=================jj",
"j====-===============;&+6hhhhhhhhhdwhhhhhh,$--=================j",
"j==-==================;*+,ghhhhhhhhhhhhhhh3@;================-=j",
"j=========-===========--;+*phhhhhhhhhhhhhh8@===============-===j",
"j========================;$@0hhhhhhhhhhhhhe@=======-===========j",
"j=====================-===;* 4hhhhhhhhhhhhi%=-------==;=========",
"j===========-============-*+,phhhhhhhhhhhht@&&*&&&&&&&*--===-===",
"j====-============-====-;&+5hhhhhhhhhhhhhh9@;;;;;;;;;;--=======j",
"j=====================-;@$rhhhhhhhhhhhhhhh<;hghghgghghy$=======j",
"j=======-==========---=+;dhhhhhhhhhshhhhhh*,hhhhhhhhhhs$*-=====j",
"j=-=================;*o3hhhhhhhhhh>3hhhhhh&,fdddsphhhhy@======jj",
"jj================-;$@0hhhhhhhhhd;.rhhhhhf*&=*&*o9hhhh>$;=====jj",
"jj==========-====--+=phhhhhhhhhr$@*shhhhhy%*&*=o1hhhh4O;======jj",
"jj===-==========-*+2ghhhhhhhhh6+%*;ghhhhhe@-=;#*hhhhro=;==-==jjj",
"jj=============-=*qhhhhhhhhhg,O*;$>hhhhhh9@;-&@shhhf#&;======jjj",
"jj=====-===-===-*%fhhhhhhhhy*+;;;@3hhhhhh3@--o0hhhh:@;=======jjj",
"jjj=============-%%ghhhhhh9+$;--=@6hhhhhh,$;+3hhhh6O--======jjjj",
"jjj==============;@>hhhhh2+*;====@0hhhhhh;*$=ghhhy+=--======jjjj",
"jjjj====-=========-+6hhs*+---==-=#rhhhhhd*&@shhhs++&$%&=-==jjjjj",
"jjjj================+ip#%;=====-*&shhhhhy#@0hhhh3#>>>:>====jjjjj",
"jjjjj==============-**&&;-====--&;hhhhhhq+*fhhhhghhhhhh:&=jjjjjj",
"jjjjjj-=============-**=======--@2hhhhhh7+&shhhhhhhhhhh;%=jjjjjj",
"jjjjjj======-===========-===-==-*;8qtdhh3@&ahhghhhhhhhh;&jjjjjjj",
"jjjjjjj==============-==========;*@@#*;1;*-;;;:;;;;;;;-==jjjjjjj",
"jjjjjjjj===========================-=*&@*;-&&&&&&&&&&&&=jjjjjjjj",
"jjjjjjjjj=========-=====-=============;---====--=--====jjjjjjjjj",
"jjjjjjjjjj=====-======-=================-=============jjjjjjjjjj",
"jjjjjjjjjjj===============-====-========-============jjjjjjjjjjj",
"jjjjjjjjjjjj================================-=======jjjjjjjjjjjj",
"jjjjjjjjjjjjj===-======================-===========jjjjjjjjjjjjj",
"jjjjjjjjjjjjjj===========-==-=====================jjjjjjjjjjjjjj",
"jjjjjjjjjjjjjjj=-==========================-====jjjjjjjjjjjjjjjj",
"jjjjjjjjjjjjjjjj======-========================jjjjjjjjjjjjjjjjj",
"jjjjjjjjjjjjjjjjjj===========================jjjjjjjjjjjjjjjjjjj",
"jjjjjjjjjjjjjjjjjjjj==========-============jjjjjjjjjjjjjjjjjjjjj",
"jjjjjjjjjjjjjjjjjjjjjjj===-=======-=====jjjjjjjjjjjjjjjjjjjjjjjj",
"jjjjjjjjjjjjjjjjjjjjjjjjjjj=========jjjjjjjjjjjjjjjjjjjjjjjjjjjj",
"jjjjjjjjjjjjjjjjjjjjjjjjjjjjjjjjjjjjjjjjjjjjjjjjjjjjjjjjjjjjjjjj"
};
